<?xml version="1.0" encoding="utf-8"?>
<svg xmlns="http://www.w3.org/2000/svg" viewBox="57.3806 141.451 378.6014 152.552" width="378.601px" height="152.552px" preserveAspectRatio="none"><g id="object-14" transform="matrix(0.9999999999999999, 0, 0, 0.9999999999999999, 0, -1.4210854715202004e-14)"><path d="M 86.524 145.298 C 86.636 145.97 86.608 146.824 86.44 147.86 C 86.44 148.168 86.412 148.476 86.356 148.784 C 86.16 149.624 86.062 150.184 86.062 150.464 C 86.062 150.856 85.978 151.696 85.81 152.984 C 85.754 153.936 85.726 155.406 85.726 157.394 C 85.726 159.382 85.838 161.09 86.062 162.518 C 86.286 163.946 86.503 164.681 86.713 164.723 C 86.923 164.765 87.126 164.604 87.322 164.24 C 87.294 164.1 87.378 163.736 87.574 163.148 C 87.826 161.664 88.106 160.348 88.414 159.2 C 88.722 158.052 88.89 157.31 88.918 156.974 C 88.946 156.778 89.03 156.246 89.17 155.378 C 89.422 154.482 89.576 153.544 89.632 152.564 L 89.632 152.228 C 89.744 150.716 89.8 149.652 89.8 149.036 C 89.8 148.42 89.786 147.902 89.758 147.482 L 89.8 145.928 C 89.828 145.564 89.954 145.256 90.178 145.004 C 90.206 145.004 90.311 144.962 90.493 144.878 C 90.675 144.794 90.857 144.717 91.039 144.647 C 91.221 144.577 91.522 144.591 91.942 144.689 C 92.362 144.787 92.642 144.885 92.782 144.983 C 92.922 145.081 93.034 145.2 93.118 145.34 C 93.202 145.48 93.272 145.599 93.328 145.697 C 93.384 145.795 93.44 145.956 93.496 146.18 C 93.58 146.656 93.664 147.58 93.748 148.952 C 93.832 150.324 93.86 151.22 93.832 151.64 C 93.804 152.06 93.79 152.578 93.79 153.194 L 93.748 153.782 C 93.748 154.146 93.678 155.147 93.538 156.785 C 93.398 158.423 93.272 159.438 93.16 159.83 C 93.104 160.334 93.076 160.642 93.076 160.754 L 92.95 161.468 C 92.95 161.552 92.936 161.636 92.908 161.72 C 92.88 161.804 92.796 162.133 92.656 162.707 C 92.516 163.281 92.432 163.596 92.404 163.652 L 92.194 164.576 C 91.634 165.864 91.284 166.592 91.144 166.76 C 91.144 166.9 90.864 167.278 90.304 167.894 L 89.632 168.776 L 89.296 169.028 C 88.204 170.12 86.986 170.204 85.642 169.28 L 84.592 168.524 C 84.424 168.272 84.2 168.02 83.92 167.768 C 83.892 167.684 83.766 167.523 83.542 167.285 C 83.318 167.047 83.122 166.795 82.954 166.529 C 82.786 166.263 82.702 166.081 82.702 165.983 C 82.702 165.885 82.576 165.57 82.324 165.038 C 82.156 164.814 82.002 164.506 81.862 164.114 C 81.806 164.058 81.694 163.75 81.526 163.19 C 81.414 162.994 81.33 162.63 81.274 162.098 L 80.77 164.03 C 80.77 164.254 80.672 164.59 80.476 165.038 L 80.224 165.878 C 79.104 168.566 78.46 170.036 78.292 170.288 C 77.788 170.904 77.368 171.303 77.032 171.485 C 76.696 171.667 76.192 171.716 75.52 171.632 C 74.988 171.604 74.12 171.408 72.916 171.044 L 72.244 170.33 C 71.964 170.05 71.796 169.714 71.74 169.322 C 71.46 168.678 71.271 168.23 71.173 167.978 C 71.075 167.726 70.97 167.25 70.858 166.55 L 70.858 165.5 C 70.802 165.416 70.76 164.842 70.732 163.778 C 70.676 163.33 70.648 163.064 70.648 162.98 L 70.69 162.686 C 70.522 162.518 70.41 161.748 70.354 160.376 L 70.312 160.082 C 70.312 159.998 70.298 159.858 70.27 159.662 C 70.242 159.466 70.186 158.99 70.102 158.234 L 69.976 156.05 C 70.032 155.77 70.032 155.406 69.976 154.958 L 69.976 154.16 C 69.976 152.564 70.088 151.43 70.312 150.758 L 70.48 149.918 C 70.48 149.806 70.508 149.652 70.564 149.456 C 70.648 149.092 70.746 148.721 70.858 148.343 C 70.97 147.965 71.054 147.545 71.11 147.083 C 71.166 146.621 71.264 146.285 71.404 146.075 C 71.544 145.865 71.768 145.606 72.076 145.298 C 72.384 144.99 72.65 144.794 72.874 144.71 C 73.378 144.626 73.7 144.584 73.84 144.584 C 74.148 144.472 74.666 144.5 75.394 144.668 C 75.618 144.668 75.954 144.78 76.402 145.004 C 76.682 145.2 76.836 145.48 76.864 145.844 C 76.92 146.236 76.878 146.901 76.738 147.839 C 76.598 148.777 76.486 149.288 76.402 149.372 C 76.542 149.512 76.556 149.862 76.444 150.422 C 76.444 151.122 76.409 151.843 76.339 152.585 C 76.269 153.327 76.234 153.796 76.234 153.992 L 76.234 154.496 C 76.206 154.748 76.192 155.07 76.192 155.462 C 76.108 155.91 76.066 156.61 76.066 157.562 C 76.01 158.206 75.996 158.626 76.024 158.822 L 75.94 159.662 L 75.94 160.25 C 75.94 160.586 75.954 160.824 75.982 160.964 C 75.926 161.608 75.919 162.448 75.961 163.484 C 76.003 164.52 76.08 165.038 76.192 165.038 L 77.578 162.686 C 77.69 162.434 77.9 161.776 78.208 160.712 L 79.72 157.856 C 80.028 156.96 80.21 156.456 80.266 156.344 L 80.56 155.63 C 80.7 155.574 80.805 155.392 80.875 155.084 C 80.945 154.776 81.043 154.398 81.169 153.95 C 81.295 153.502 81.372 152.851 81.4 151.997 C 81.428 151.143 81.554 150.492 81.778 150.044 C 81.778 149.456 81.932 148.434 82.24 146.978 C 82.296 146.53 82.324 146.194 82.324 145.97 C 82.604 145.214 82.898 144.689 83.206 144.395 C 83.514 144.101 84.095 144.045 84.949 144.227 C 85.803 144.409 86.328 144.766 86.524 145.298 Z" style="fill: rgb(51, 51, 51); text-wrap-mode: nowrap; stroke-width: 1;" id="object-0"/><path d="M 106.161 165.54 C 106.217 165.484 106.546 165.421 107.148 165.351 C 107.75 165.281 108.457 165.036 109.269 164.616 C 109.297 164.616 109.283 164.28 109.227 163.608 C 109.143 162.432 109.073 161.592 109.017 161.088 C 108.961 160.416 108.905 159.94 108.849 159.66 C 108.849 159.128 108.639 158.022 108.219 156.342 L 106.371 162.6 C 105.979 164.336 105.825 165.4 105.909 165.792 L 106.161 165.54 Z M 100.491 166.758 L 100.743 164.91 C 100.743 164.546 100.799 164.182 100.911 163.818 C 100.911 163.342 101.149 162.628 101.625 161.676 C 101.625 161.62 101.751 161.256 102.003 160.584 C 102.003 160.528 102.269 159.702 102.801 158.106 L 103.305 156.888 C 103.305 156.776 103.375 156.559 103.515 156.237 C 103.655 155.915 103.76 155.593 103.83 155.271 C 103.9 154.949 103.991 154.634 104.103 154.326 C 104.495 153.57 104.845 152.926 105.153 152.394 C 105.741 151.274 106.833 150.77 108.429 150.882 L 109.773 151.008 C 110.613 151.232 111.257 151.47 111.705 151.722 C 112.349 151.974 112.783 152.247 113.007 152.541 C 113.231 152.835 113.329 153.318 113.301 153.99 C 113.329 154.326 113.413 155.782 113.553 158.358 C 113.693 160.934 113.763 162.236 113.763 162.264 L 113.973 164.07 C 113.973 164.238 114.281 166.254 114.897 170.118 L 115.821 173.058 C 116.381 174.626 116.682 175.445 116.724 175.515 C 116.766 175.585 116.885 175.886 117.081 176.418 C 117.389 177.342 117.123 177.958 116.283 178.266 C 115.527 178.378 114.967 178.308 114.603 178.056 C 114.463 178.056 114.141 177.93 113.637 177.678 C 113.581 177.538 113.42 177.405 113.154 177.279 C 112.888 177.153 112.713 177.048 112.629 176.964 C 112.321 176.88 112.041 176.446 111.789 175.662 C 111.705 175.606 111.551 175.382 111.327 174.99 C 111.131 174.598 111.075 174.276 111.159 174.024 C 110.963 173.772 110.865 173.254 110.865 172.47 C 110.613 172.05 110.487 171.392 110.487 170.496 C 110.487 169.6 110.347 168.9 110.067 168.396 C 108.639 169.04 107.113 169.39 105.489 169.446 C 105.181 169.446 105.027 169.502 105.027 169.614 C 105.027 169.866 104.943 170.314 104.775 170.958 L 104.061 175.578 C 104.341 177.65 104.089 178.742 103.305 178.854 C 103.081 178.854 102.71 178.91 102.192 179.022 C 101.674 179.134 101.247 179.036 100.911 178.728 C 100.267 178.364 99.812 177.993 99.546 177.615 C 99.28 177.237 99.161 176.81 99.189 176.334 C 99.217 175.942 99.287 175.102 99.399 173.814 C 99.455 173.758 99.476 173.443 99.462 172.869 C 99.448 172.295 99.483 171.854 99.567 171.546 L 100.239 168.942 C 100.323 168.886 100.435 168.466 100.575 167.682 C 100.547 167.626 100.533 167.486 100.533 167.262 L 100.491 166.758 Z" style="fill: rgb(51, 51, 51); text-wrap-mode: nowrap; stroke-width: 1;" id="object-1"/><path d="M 123.018 175.701 C 123.074 175.617 123.074 175.421 123.018 175.113 C 122.906 174.105 122.892 173.405 122.976 173.013 C 122.864 171.501 122.829 170.619 122.871 170.367 C 122.913 170.115 122.99 169.975 123.102 169.947 C 122.99 169.779 122.885 169.163 122.787 168.099 C 122.689 167.035 122.668 166.321 122.724 165.957 C 122.668 165.733 122.654 165.46 122.682 165.138 C 122.71 164.816 122.752 164.599 122.808 164.487 C 122.752 164.431 122.71 164.221 122.682 163.857 L 122.682 161.967 L 122.766 160.875 L 122.766 159.951 L 123.018 158.649 C 122.934 158.509 123.004 158.257 123.228 157.893 C 122.948 157.305 123.242 156.577 124.11 155.709 C 124.138 155.653 124.46 155.471 125.076 155.163 C 125.58 155.135 125.923 155.135 126.105 155.163 C 126.287 155.191 126.567 155.219 126.945 155.247 C 127.323 155.275 127.61 155.317 127.806 155.373 C 128.31 155.541 128.562 155.989 128.562 156.717 L 128.562 157.431 C 128.618 158.439 128.646 159.195 128.646 159.699 L 128.646 160.623 C 128.646 160.987 128.618 161.197 128.562 161.253 C 128.59 161.365 128.59 161.631 128.562 162.051 L 128.562 162.765 C 128.478 163.633 128.45 164.137 128.478 164.277 L 128.184 166.503 C 128.408 166.587 129.206 166.629 130.578 166.629 L 132.678 166.629 C 133.91 166.629 134.687 166.622 135.009 166.608 C 135.331 166.594 135.541 166.503 135.639 166.335 C 135.737 166.167 135.814 165.943 135.87 165.663 C 135.926 165.383 135.968 165.061 135.996 164.697 C 136.024 164.333 136.052 164.109 136.08 164.025 C 136.248 163.885 136.29 163.283 136.206 162.219 C 136.206 162.135 136.262 161.925 136.374 161.589 C 136.374 161.197 136.43 160.749 136.542 160.245 C 136.542 159.713 136.633 159.244 136.815 158.838 C 136.997 158.432 137.13 158.089 137.214 157.809 C 137.354 157.333 137.69 156.927 138.222 156.591 C 138.922 156.087 139.594 155.765 140.238 155.625 L 140.994 155.625 C 141.75 155.765 142.002 156.479 141.75 157.767 C 141.75 158.187 141.638 158.733 141.414 159.405 C 141.162 160.721 141.036 161.575 141.036 161.967 C 141.036 162.359 140.924 163.073 140.7 164.109 C 140.756 164.641 140.763 164.991 140.721 165.159 C 140.679 165.327 140.658 165.537 140.658 165.789 C 140.602 166.405 140.574 166.825 140.574 167.049 C 140.518 167.889 140.49 168.561 140.49 169.065 C 140.49 169.569 140.448 170.115 140.364 170.703 C 140.364 171.291 140.266 171.893 140.07 172.509 L 139.944 175.197 C 139.944 175.393 140.042 176.835 140.238 179.523 C 140.406 179.691 140.462 180.02 140.406 180.51 C 140.35 181 140.252 181.343 140.112 181.539 C 139.972 181.735 139.825 181.847 139.671 181.875 C 139.517 181.903 139.286 181.917 138.978 181.917 C 138.334 182.281 137.816 182.421 137.424 182.337 C 137.088 182.337 136.738 182.225 136.374 182.001 C 135.786 181.693 135.408 181.315 135.24 180.867 C 135.24 180.671 135.205 180.433 135.135 180.153 C 135.065 179.873 135.058 179.572 135.114 179.25 C 135.17 178.928 135.191 178.585 135.177 178.221 C 135.163 177.857 135.156 177.437 135.156 176.961 L 135.198 176.457 C 135.142 176.345 135.17 176.163 135.282 175.911 C 135.394 175.659 135.408 175.463 135.324 175.323 L 135.324 174.189 L 135.534 172.047 C 135.254 171.851 135.24 171.389 135.492 170.661 L 135.576 170.325 C 135.24 170.409 134.932 170.451 134.652 170.451 C 133.868 170.647 133 170.745 132.048 170.745 L 128.268 170.619 L 128.268 171.081 C 128.212 171.529 128.198 172.201 128.226 173.097 L 128.226 173.895 C 128.254 174.623 128.268 175.659 128.268 177.003 C 128.38 178.459 128.436 179.509 128.436 180.153 L 128.394 180.447 C 128.394 180.671 128.366 180.867 128.31 181.035 C 128.31 181.567 128.177 181.931 127.911 182.127 C 127.645 182.323 127.218 182.449 126.63 182.505 C 126.042 182.561 125.51 182.407 125.034 182.043 C 124.362 181.707 124.012 181.427 123.984 181.203 C 123.956 180.979 123.872 180.685 123.732 180.321 C 123.592 180.097 123.494 179.831 123.438 179.523 C 123.438 178.627 123.424 178.123 123.396 178.011 C 123.312 177.899 123.27 177.703 123.27 177.423 C 123.27 177.059 123.186 176.485 123.018 175.701 Z" style="fill: rgb(51, 51, 51); text-wrap-mode: nowrap; stroke-width: 1;" id="object-2"/><path d="M 155.845 169.637 C 155.845 169.245 155.859 168.923 155.887 168.671 C 156.027 167.299 156.132 166.431 156.202 166.067 C 156.272 165.703 156.307 165.479 156.307 165.395 L 156.307 163.589 C 156.391 163.477 156.475 162.791 156.559 161.531 C 156.559 160.187 156.615 159.193 156.727 158.549 C 156.727 158.129 156.867 157.737 157.147 157.373 C 157.511 156.757 157.945 156.323 158.449 156.071 L 158.491 156.071 C 158.911 155.959 159.338 155.973 159.772 156.113 C 160.206 156.253 160.451 156.33 160.507 156.344 C 160.563 156.358 160.64 156.386 160.738 156.428 C 160.836 156.47 160.906 156.498 160.948 156.512 C 160.99 156.526 161.046 156.554 161.116 156.596 C 161.186 156.638 161.242 156.68 161.284 156.722 C 161.326 156.764 161.375 156.806 161.431 156.848 C 161.487 156.89 161.529 156.939 161.557 156.995 C 161.837 157.555 162.033 159.403 162.145 162.539 C 162.229 163.043 162.271 163.848 162.271 164.954 C 162.271 166.06 162.257 166.809 162.229 167.201 L 162.229 167.621 C 162.173 168.125 162.145 168.503 162.145 168.755 L 162.145 169.049 C 162.145 169.581 162.103 169.987 162.019 170.267 C 162.019 170.911 161.949 171.513 161.809 172.073 C 161.809 172.297 161.746 172.654 161.62 173.144 C 161.494 173.634 161.431 174.033 161.431 174.341 C 161.459 174.481 161.333 175.069 161.053 176.105 C 161.109 176.217 161.011 176.651 160.759 177.407 C 160.759 177.715 160.661 178.072 160.465 178.478 C 160.269 178.884 160.101 179.276 159.961 179.654 C 159.821 180.032 159.737 180.249 159.709 180.305 C 159.541 181.173 159.093 182.111 158.365 183.119 L 157.693 183.791 C 157.749 183.847 157.679 183.973 157.483 184.169 C 157.315 184.365 156.475 184.869 154.963 185.681 C 154.935 185.709 154.648 185.793 154.102 185.933 C 153.556 186.073 152.933 186.143 152.233 186.143 C 151.533 186.143 150.861 186.031 150.217 185.807 C 149.825 185.723 149.475 185.583 149.167 185.387 C 149.027 185.247 148.831 185.107 148.579 184.967 C 148.439 184.967 148.033 184.715 147.361 184.211 C 147.249 184.127 146.885 183.609 146.269 182.657 C 146.073 182.209 145.968 181.964 145.954 181.922 C 145.94 181.88 145.898 181.789 145.828 181.649 C 145.758 181.509 145.709 181.187 145.681 180.683 C 145.625 179.563 146.003 179.003 146.815 179.003 C 147.655 179.003 148.439 179.423 149.167 180.263 C 149.391 180.487 149.531 180.634 149.587 180.704 C 149.643 180.774 149.776 180.907 149.986 181.103 C 150.196 181.299 150.364 181.425 150.49 181.481 C 150.616 181.537 150.784 181.607 150.994 181.691 C 151.204 181.775 151.407 181.817 151.603 181.817 C 151.799 181.817 152.058 181.754 152.38 181.628 C 152.702 181.502 152.919 181.341 153.031 181.145 C 153.031 180.865 153.192 180.501 153.514 180.053 C 153.836 179.605 154.011 179.353 154.039 179.297 C 154.123 178.905 154.207 178.625 154.291 178.457 C 154.459 177.981 154.599 177.351 154.711 176.567 C 154.767 176.511 154.711 176.161 154.543 175.517 C 154.543 175.405 154.312 175.272 153.85 175.118 C 153.388 174.964 152.989 174.873 152.653 174.845 C 152.093 174.957 151.379 174.677 150.511 174.005 C 150.147 173.725 149.923 173.508 149.839 173.354 C 149.755 173.2 149.678 173.095 149.608 173.039 C 149.538 172.983 149.475 172.885 149.419 172.745 C 148.831 171.765 148.537 171.135 148.537 170.855 L 148.369 170.435 C 148.369 170.155 148.257 169.903 148.033 169.679 C 148.033 169.623 147.991 169.119 147.907 168.167 C 147.711 167.439 147.613 166.781 147.613 166.193 L 147.613 165.521 L 147.655 164.639 C 147.599 164.415 147.613 163.967 147.697 163.295 L 147.697 161.699 L 147.739 161.069 L 147.739 160.187 C 147.767 160.159 147.781 160.019 147.781 159.767 L 147.823 159.347 C 147.823 159.067 147.837 158.843 147.865 158.675 C 147.865 157.499 148.481 156.813 149.713 156.617 C 150.665 156.533 151.309 156.631 151.645 156.911 C 152.289 157.471 152.569 158.633 152.485 160.397 C 152.485 160.901 152.457 161.321 152.401 161.657 C 152.569 162.189 152.611 162.651 152.527 163.043 C 152.583 163.239 152.611 163.435 152.611 163.631 L 152.611 164.261 C 152.611 164.373 152.66 164.891 152.758 165.815 C 152.856 166.739 152.961 167.369 153.073 167.705 C 153.073 168.069 153.129 168.419 153.241 168.755 C 153.241 168.979 153.395 169.399 153.703 170.015 C 153.955 171.275 154.431 171.863 155.131 171.779 C 155.411 171.723 155.635 171.247 155.803 170.351 C 155.887 170.267 155.901 170.029 155.845 169.637 Z" style="fill: rgb(51, 51, 51); text-wrap-mode: nowrap; stroke-width: 1;" id="object-3"/><path d="M 167.733 178.702 C 167.621 178.59 167.516 178.324 167.418 177.904 C 167.32 177.484 167.278 177.092 167.292 176.728 C 167.306 176.364 167.271 175.888 167.187 175.3 C 167.215 175.188 167.229 174.873 167.229 174.355 C 167.229 173.837 167.201 173.319 167.145 172.801 C 167.089 172.283 167.068 171.863 167.082 171.541 C 167.096 171.219 167.089 170.862 167.061 170.47 C 167.089 170.274 167.145 169.938 167.229 169.462 C 167.201 169.434 167.187 169.077 167.187 168.391 C 167.187 167.705 167.243 167.152 167.355 166.732 C 167.355 165.948 167.425 165.094 167.565 164.17 L 167.565 163.456 C 167.761 162.252 167.887 161.398 167.943 160.894 C 167.971 160.278 168.055 159.774 168.195 159.382 C 168.083 159.018 168.209 158.234 168.573 157.03 C 168.685 156.75 169.063 156.484 169.707 156.232 L 169.665 156.274 C 169.833 156.162 170.183 156.12 170.715 156.148 C 171.247 156.176 171.604 156.232 171.786 156.316 C 171.968 156.4 172.297 156.512 172.773 156.652 C 173.417 156.82 173.585 158.374 173.277 161.314 C 173.277 161.594 173.193 162.294 173.025 163.414 C 173.025 163.974 172.983 164.548 172.899 165.136 L 172.899 165.934 L 172.815 166.984 C 172.815 167.236 172.808 167.474 172.794 167.698 C 172.78 167.922 172.766 168.265 172.752 168.727 C 172.738 169.189 172.696 169.546 172.626 169.798 C 172.556 170.05 172.521 170.218 172.521 170.302 C 172.437 170.386 172.381 170.624 172.353 171.016 C 172.325 171.492 172.241 172.066 172.101 172.738 C 171.961 172.99 172.017 174.46 172.269 177.148 C 172.325 177.988 172.521 178.541 172.857 178.807 C 173.193 179.073 173.655 178.996 174.243 178.576 C 174.411 178.408 174.509 178.296 174.537 178.24 L 174.705 177.61 C 174.817 177.61 174.971 177.33 175.167 176.77 L 175.629 175.93 L 175.755 175.426 C 175.755 175.202 175.874 174.887 176.112 174.481 C 176.35 174.075 176.497 173.802 176.553 173.662 L 177.183 171.562 L 177.435 170.512 C 177.435 170.344 177.547 170.036 177.771 169.588 C 177.771 169.448 177.841 169.084 177.981 168.496 C 177.981 167.964 177.967 167.586 177.939 167.362 C 177.967 167.362 177.988 167.278 178.002 167.11 C 178.016 166.942 178.086 166.669 178.212 166.291 C 178.338 165.913 178.401 165.444 178.401 164.884 C 178.401 164.8 178.527 164.52 178.779 164.044 C 178.779 163.316 179.045 162.35 179.577 161.146 C 179.549 161.174 179.549 161.146 179.577 161.062 C 179.605 160.95 179.626 160.859 179.64 160.789 C 179.654 160.719 179.675 160.642 179.703 160.558 C 179.731 160.474 179.745 160.39 179.745 160.306 C 179.661 160.138 179.675 159.928 179.787 159.676 C 179.899 159.424 179.997 159.158 180.081 158.878 C 180.165 158.598 180.263 158.318 180.375 158.038 L 181.383 157.366 C 181.523 157.366 181.712 157.345 181.95 157.303 C 182.188 157.261 182.741 157.268 183.609 157.324 C 183.945 157.436 184.211 157.744 184.407 158.248 C 184.715 158.724 184.757 159.424 184.533 160.348 C 184.533 160.544 184.421 161.23 184.197 162.406 C 184.197 162.602 184.113 163.064 183.945 163.792 C 183.777 164.52 183.658 165.171 183.588 165.745 C 183.518 166.319 183.441 166.704 183.357 166.9 C 183.301 167.292 183.287 167.614 183.315 167.866 L 183.063 169.672 C 183.063 170.12 183.021 170.792 182.937 171.688 C 182.853 172.584 182.762 173.277 182.664 173.767 C 182.566 174.257 182.699 175.23 183.063 176.686 L 183.567 179.416 C 183.567 179.836 183.637 180.193 183.777 180.487 C 183.917 180.781 183.987 180.928 183.987 180.928 L 183.987 181.138 C 184.771 182.678 184.505 183.574 183.189 183.826 C 182.545 183.994 182.153 184.113 182.013 184.183 C 181.873 184.253 181.572 184.225 181.11 184.099 C 180.648 183.973 180.221 183.714 179.829 183.322 C 179.717 183.154 179.563 182.65 179.367 181.81 C 179.283 181.642 179.185 181.152 179.073 180.34 C 178.989 180.256 178.891 179.934 178.779 179.374 C 178.835 179.262 178.779 179.08 178.611 178.828 C 178.415 179.22 178.275 179.472 178.191 179.584 C 177.995 179.892 177.876 180.109 177.834 180.235 C 177.792 180.361 177.687 180.648 177.519 181.096 L 176.763 182.44 C 176.175 183.532 175.447 184.022 174.579 183.91 C 174.551 183.882 174.271 183.854 173.739 183.826 C 173.627 183.714 173.235 183.616 172.563 183.532 C 172.451 183.504 172.311 183.483 172.143 183.469 C 171.975 183.455 171.751 183.434 171.471 183.406 C 171.415 183.322 171.205 183.168 170.841 182.944 C 170.001 182.636 169.427 182.216 169.119 181.684 C 168.867 181.628 168.685 181.432 168.573 181.096 C 168.517 180.928 168.335 180.536 168.027 179.92 L 167.733 178.702 Z" style="fill: rgb(51, 51, 51); text-wrap-mode: nowrap; stroke-width: 1;" id="object-4"/><path d="M 211.529 170.329 C 211.473 170.189 211.466 169.951 211.508 169.615 C 211.55 169.279 211.599 168.831 211.655 168.271 C 211.655 167.403 211.669 166.871 211.697 166.675 L 211.655 165.835 C 211.655 165.387 211.669 165.009 211.697 164.701 L 211.697 163.483 C 211.753 163.231 211.76 162.811 211.718 162.223 C 211.676 161.635 211.697 160.886 211.781 159.976 C 211.865 159.066 211.935 158.513 211.991 158.317 L 211.991 157.477 C 211.991 157.393 212.005 157.099 212.033 156.595 L 212.033 156.301 C 212.061 155.881 212.047 155.629 211.991 155.545 L 212.369 153.991 L 212.537 153.109 C 212.593 152.997 212.803 152.759 213.167 152.395 C 213.251 152.311 213.573 152.269 214.133 152.269 C 214.693 152.269 215.113 152.283 215.393 152.311 C 215.673 152.339 215.855 152.416 215.939 152.542 C 216.023 152.668 216.107 152.927 216.191 153.319 C 216.359 153.683 216.401 154.145 216.317 154.705 C 216.345 154.873 216.359 154.999 216.359 155.083 L 216.359 155.503 C 216.443 156.063 216.429 156.637 216.317 157.225 C 216.317 157.449 216.331 157.673 216.359 157.897 L 216.359 158.275 C 216.359 158.835 216.317 159.325 216.233 159.745 L 216.233 160.795 C 216.261 161.159 216.219 161.509 216.107 161.845 C 216.107 161.957 216.093 162.293 216.065 162.853 C 216.009 163.049 215.953 163.287 215.897 163.567 C 215.981 163.791 215.981 164.085 215.897 164.449 C 215.813 164.533 215.841 164.869 215.981 165.457 C 215.869 165.821 215.883 166.479 216.023 167.431 L 216.023 168.271 C 216.107 169.167 216.093 170.049 215.981 170.917 L 215.981 171.169 C 215.981 171.729 215.953 172.135 215.897 172.387 C 215.953 172.863 215.953 173.465 215.897 174.193 L 215.897 174.445 L 215.813 175.453 C 215.505 177.441 214.609 178.575 213.125 178.855 C 211.305 179.191 209.863 178.701 208.799 177.385 L 208.547 176.755 C 208.239 176.699 207.833 176.055 207.329 174.823 C 206.545 172.947 206.111 171.911 206.027 171.715 C 205.635 170.623 205.439 170.035 205.439 169.951 L 205.355 169.153 C 205.327 169.097 205.271 168.985 205.187 168.817 C 205.103 168.649 205.033 168.481 204.977 168.313 C 204.977 168.117 204.879 167.697 204.683 167.053 C 204.683 166.997 204.613 166.647 204.473 166.003 L 203.969 162.265 C 203.969 162.181 203.955 162.041 203.927 161.845 L 203.759 162.769 C 203.563 164.645 203.423 165.779 203.339 166.171 L 203.129 170.413 L 203.129 172.093 L 203.003 174.151 C 203.003 175.187 203.045 176.153 203.129 177.049 C 203.101 177.861 202.947 178.4 202.667 178.666 C 202.387 178.932 201.967 179.079 201.407 179.107 C 201.015 178.995 200.483 178.785 199.811 178.477 C 199.615 178.365 199.482 178.134 199.412 177.784 C 199.342 177.434 199.181 177.133 198.929 176.881 C 198.677 176.629 198.537 176.349 198.509 176.041 L 198.005 172.849 C 198.005 172.401 198.026 171.932 198.068 171.442 C 198.11 170.952 198.11 170.441 198.068 169.909 C 198.026 169.377 198.096 168.761 198.278 168.061 C 198.46 167.361 198.537 166.766 198.509 166.276 C 198.481 165.786 198.509 165.156 198.593 164.386 C 198.677 163.616 198.719 163.056 198.719 162.706 C 198.719 162.356 198.761 162.083 198.845 161.887 C 198.845 161.439 198.873 161.089 198.929 160.837 C 198.901 160.753 198.985 160.333 199.181 159.577 C 199.181 159.381 199.223 159.087 199.307 158.695 C 199.391 158.303 199.475 157.771 199.559 157.099 C 199.643 156.427 199.797 155.881 200.021 155.461 C 200.245 155.041 200.595 154.565 201.071 154.033 C 201.323 153.893 201.547 153.529 201.743 152.941 C 201.939 152.661 202.303 152.395 202.835 152.143 C 203.031 152.003 203.29 151.933 203.612 151.933 C 203.934 151.933 204.235 152.031 204.515 152.227 C 205.607 152.647 206.279 153.389 206.531 154.453 L 206.699 155.503 C 206.699 155.671 206.825 156.049 207.077 156.637 C 207.077 156.917 207.133 157.323 207.245 157.855 C 207.245 158.247 207.343 158.653 207.539 159.073 C 207.819 160.501 208.029 161.495 208.169 162.055 C 208.309 162.251 208.421 162.517 208.505 162.853 C 208.561 163.105 208.673 163.483 208.841 163.987 C 208.897 164.463 209.023 165.009 209.219 165.625 C 210.367 169.377 211.081 171.491 211.361 171.967 C 211.417 171.855 211.445 171.505 211.445 170.917 L 211.529 170.329 Z" style="fill: rgb(51, 51, 51); text-wrap-mode: nowrap; stroke-width: 1;" id="object-5"/><path d="M 223.114 169.365 C 223.002 169.253 222.897 168.987 222.799 168.567 C 222.701 168.147 222.659 167.755 222.673 167.391 C 222.687 167.027 222.652 166.551 222.568 165.963 C 222.596 165.851 222.61 165.536 222.61 165.018 C 222.61 164.5 222.582 163.982 222.526 163.464 C 222.47 162.946 222.449 162.526 222.463 162.204 C 222.477 161.882 222.47 161.525 222.442 161.133 C 222.47 160.937 222.526 160.601 222.61 160.125 C 222.582 160.097 222.568 159.74 222.568 159.054 C 222.568 158.368 222.624 157.815 222.736 157.395 C 222.736 156.611 222.806 155.757 222.946 154.833 L 222.946 154.119 C 223.142 152.915 223.268 152.061 223.324 151.557 C 223.352 150.941 223.436 150.437 223.576 150.045 C 223.464 149.681 223.59 148.897 223.954 147.693 C 224.066 147.413 224.444 147.147 225.088 146.895 L 225.046 146.937 C 225.214 146.825 225.564 146.783 226.096 146.811 C 226.628 146.839 226.985 146.895 227.167 146.979 C 227.349 147.063 227.678 147.175 228.154 147.315 C 228.798 147.483 228.966 149.037 228.658 151.977 C 228.658 152.257 228.574 152.957 228.406 154.077 C 228.406 154.637 228.364 155.211 228.28 155.799 L 228.28 156.597 L 228.196 157.647 C 228.196 157.899 228.189 158.137 228.175 158.361 C 228.161 158.585 228.147 158.928 228.133 159.39 C 228.119 159.852 228.077 160.209 228.007 160.461 C 227.937 160.713 227.902 160.881 227.902 160.965 C 227.818 161.049 227.762 161.287 227.734 161.679 C 227.706 162.155 227.622 162.729 227.482 163.401 C 227.342 163.653 227.398 165.123 227.65 167.811 C 227.706 168.651 227.902 169.204 228.238 169.47 C 228.574 169.736 229.036 169.659 229.624 169.239 C 229.792 169.071 229.89 168.959 229.918 168.903 L 230.086 168.273 C 230.198 168.273 230.352 167.993 230.548 167.433 L 231.01 166.593 L 231.136 166.089 C 231.136 165.865 231.255 165.55 231.493 165.144 C 231.731 164.738 231.878 164.465 231.934 164.325 L 232.564 162.225 L 232.816 161.175 C 232.816 161.007 232.928 160.699 233.152 160.251 C 233.152 160.111 233.222 159.747 233.362 159.159 C 233.362 158.627 233.348 158.249 233.32 158.025 C 233.348 158.025 233.369 157.941 233.383 157.773 C 233.397 157.605 233.467 157.332 233.593 156.954 C 233.719 156.576 233.782 156.107 233.782 155.547 C 233.782 155.463 233.908 155.183 234.16 154.707 C 234.16 153.979 234.426 153.013 234.958 151.809 C 234.93 151.837 234.93 151.809 234.958 151.725 C 234.986 151.613 235.007 151.522 235.021 151.452 C 235.035 151.382 235.056 151.305 235.084 151.221 C 235.112 151.137 235.126 151.053 235.126 150.969 C 235.042 150.801 235.056 150.591 235.168 150.339 C 235.28 150.087 235.378 149.821 235.462 149.541 C 235.546 149.261 235.644 148.981 235.756 148.701 L 236.764 148.029 C 236.904 148.029 237.093 148.008 237.331 147.966 C 237.569 147.924 238.122 147.931 238.99 147.987 C 239.326 148.099 239.592 148.407 239.788 148.911 C 240.096 149.387 240.138 150.087 239.914 151.011 C 239.914 151.207 239.802 151.893 239.578 153.069 C 239.578 153.265 239.494 153.727 239.326 154.455 C 239.158 155.183 239.039 155.834 238.969 156.408 C 238.899 156.982 238.822 157.367 238.738 157.563 C 238.682 157.955 238.668 158.277 238.696 158.529 L 238.444 160.335 C 238.444 160.783 238.402 161.455 238.318 162.351 C 238.234 163.247 238.143 163.94 238.045 164.43 C 237.947 164.92 238.08 165.893 238.444 167.349 L 238.948 170.079 C 238.948 170.499 239.018 170.856 239.158 171.15 C 239.298 171.444 239.368 171.591 239.368 171.591 L 239.368 171.801 C 240.152 173.341 239.886 174.237 238.57 174.489 C 237.926 174.657 237.534 174.776 237.394 174.846 C 237.254 174.916 236.953 174.888 236.491 174.762 C 236.029 174.636 235.602 174.377 235.21 173.985 C 235.098 173.817 234.944 173.313 234.748 172.473 C 234.664 172.305 234.566 171.815 234.454 171.003 C 234.37 170.919 234.272 170.597 234.16 170.037 C 234.216 169.925 234.16 169.743 233.992 169.491 C 233.796 169.883 233.656 170.135 233.572 170.247 C 233.376 170.555 233.257 170.772 233.215 170.898 C 233.173 171.024 233.068 171.311 232.9 171.759 L 232.144 173.103 C 231.556 174.195 230.828 174.685 229.96 174.573 C 229.932 174.545 229.652 174.517 229.12 174.489 C 229.008 174.377 228.616 174.279 227.944 174.195 C 227.832 174.167 227.692 174.146 227.524 174.132 C 227.356 174.118 227.132 174.097 226.852 174.069 C 226.796 173.985 226.586 173.831 226.222 173.607 C 225.382 173.299 224.808 172.879 224.5 172.347 C 224.248 172.291 224.066 172.095 223.954 171.759 C 223.898 171.591 223.716 171.199 223.408 170.583 L 223.114 169.365 Z" style="fill: rgb(51, 51, 51); text-wrap-mode: nowrap; stroke-width: 1;" id="object-6"/><path d="M 253.411 148.945 C 253.411 150.261 253.229 152.011 252.865 154.195 C 253.033 154.055 253.285 153.817 253.621 153.481 C 254.013 153.089 254.797 152.515 255.973 151.759 L 256.603 151.297 L 257.863 150.667 L 259.249 149.743 C 259.193 149.687 259.263 149.547 259.459 149.323 C 259.991 148.399 260.299 147.587 260.383 146.887 C 260.383 146.523 260.327 146.25 260.215 146.068 C 260.103 145.886 259.753 145.767 259.165 145.711 C 259.109 145.655 258.843 145.585 258.367 145.501 C 257.219 145.501 256.456 145.571 256.078 145.711 C 255.7 145.851 255.413 145.921 255.217 145.921 L 254.587 146.089 L 253.873 146.131 L 253.705 147.265 C 253.705 147.293 253.649 147.573 253.537 148.105 C 253.537 148.301 253.495 148.581 253.411 148.945 Z M 260.551 167.509 C 260.131 167.369 259.543 166.963 258.787 166.291 C 258.647 166.095 258.283 165.759 257.695 165.283 C 257.135 164.947 256.435 164.289 255.595 163.309 C 255.595 163.281 255.497 163.057 255.301 162.637 C 254.965 162.329 254.643 161.713 254.335 160.789 C 254.307 160.761 254.265 160.705 254.209 160.621 C 254.153 160.537 254.062 160.404 253.936 160.222 C 253.81 160.04 253.677 159.725 253.537 159.277 C 253.397 158.829 253.117 158.339 252.697 157.807 L 252.529 157.807 C 252.529 157.975 252.487 158.213 252.403 158.521 L 252.403 159.361 L 252.151 161.797 L 251.521 165.871 C 251.633 166.095 251.633 166.473 251.521 167.005 C 251.521 167.229 251.451 167.593 251.311 168.097 C 251.171 168.601 250.961 168.937 250.681 169.105 C 250.401 169.273 249.855 169.301 249.043 169.189 C 248.763 169.077 248.371 168.685 247.867 168.013 C 247.671 167.929 247.391 167.481 247.027 166.669 C 247.083 166.165 247.097 165.85 247.069 165.724 C 247.041 165.598 247.027 165.437 247.027 165.241 C 247.027 165.045 247.041 164.919 247.069 164.863 C 247.013 164.919 247.013 164.639 247.069 164.023 L 247.069 163.729 C 247.069 163.617 247.153 163.169 247.321 162.385 C 247.321 161.797 247.328 161.384 247.342 161.146 C 247.356 160.908 247.447 160.621 247.615 160.285 L 247.615 159.151 L 247.657 158.017 C 247.825 157.513 247.909 156.925 247.909 156.253 C 247.965 155.917 248 155.588 248.014 155.266 C 248.028 154.944 248.077 154.587 248.161 154.195 C 248.161 153.579 248.203 153.11 248.287 152.788 C 248.371 152.466 248.42 152.242 248.434 152.116 C 248.448 151.99 248.469 151.787 248.497 151.507 L 248.791 149.701 L 248.917 147.055 L 248.413 146.719 C 247.517 146.355 246.887 145.991 246.523 145.627 C 246.383 145.543 246.334 145.326 246.376 144.976 C 246.418 144.626 246.607 144.339 246.943 144.115 C 247.335 144.115 247.909 143.877 248.665 143.401 C 248.749 143.401 249.001 143.261 249.421 142.981 L 250.177 142.729 C 250.261 142.645 250.611 142.491 251.227 142.267 C 251.367 142.267 251.591 142.19 251.899 142.036 C 252.207 141.882 252.529 141.791 252.865 141.763 C 253.145 141.735 253.712 141.658 254.566 141.532 C 255.42 141.406 256.141 141.427 256.729 141.595 C 257.093 141.595 257.485 141.665 257.905 141.805 C 258.577 141.805 259.333 142.029 260.173 142.477 C 260.369 142.477 260.649 142.603 261.013 142.855 L 261.811 143.233 L 262.861 144.073 C 263.449 144.549 263.981 145.151 264.457 145.879 C 264.793 146.215 264.919 146.649 264.835 147.181 C 264.443 149.617 262.749 152.039 259.753 154.447 L 258.535 154.993 L 256.477 156.295 C 257.177 157.275 258.087 158.423 259.207 159.739 C 259.291 159.935 259.613 160.327 260.173 160.915 L 261.601 162.679 L 262.105 163.435 L 263.239 164.695 C 263.323 164.891 263.561 165.129 263.953 165.409 L 264.667 166.081 C 265.311 166.585 265.577 167.159 265.465 167.803 C 265.353 168.447 264.961 168.783 264.289 168.811 L 263.281 168.727 L 261.265 168.181 L 260.551 167.509 Z" style="fill: rgb(51, 51, 51); text-wrap-mode: nowrap; stroke-width: 1;" id="object-7"/><path d="M 79.122 234.856 C 79.297 234.682 80.322 234.485 82.198 234.267 C 84.075 234.049 86.278 233.286 88.809 231.976 C 88.896 231.976 88.853 230.929 88.678 228.835 C 88.416 225.17 88.198 222.552 88.023 220.981 C 87.848 218.887 87.674 217.403 87.5 216.53 C 87.5 214.872 86.845 211.425 85.536 206.189 L 79.777 225.693 C 78.555 231.104 78.075 234.42 78.337 235.641 L 79.122 234.856 Z M 61.451 238.652 L 62.236 232.893 C 62.236 231.759 62.411 230.624 62.76 229.489 C 62.76 228.006 63.502 225.781 64.985 222.813 C 64.985 222.639 65.378 221.504 66.163 219.41 C 66.163 219.236 66.992 216.661 68.65 211.687 L 70.221 207.891 C 70.221 207.542 70.439 206.866 70.875 205.862 C 71.312 204.858 71.639 203.855 71.857 202.851 C 72.075 201.848 72.359 200.866 72.708 199.906 C 73.93 197.55 75.021 195.542 75.98 193.884 C 77.813 190.394 81.216 188.823 86.191 189.172 L 90.379 189.565 C 92.997 190.263 95.004 191.005 96.401 191.79 C 98.408 192.576 99.76 193.426 100.459 194.342 C 101.157 195.259 101.462 196.765 101.375 198.859 C 101.462 199.906 101.724 204.444 102.16 212.472 C 102.597 220.501 102.815 224.559 102.815 224.646 L 103.469 230.275 C 103.469 230.799 104.429 237.082 106.349 249.124 L 109.229 258.287 C 110.974 263.175 111.912 265.727 112.043 265.945 C 112.174 266.163 112.545 267.101 113.156 268.759 C 114.116 271.639 113.287 273.559 110.669 274.519 C 108.313 274.868 106.568 274.65 105.433 273.864 C 104.996 273.864 103.993 273.472 102.422 272.686 C 102.247 272.25 101.746 271.836 100.917 271.443 C 100.088 271.051 99.542 270.723 99.281 270.461 C 98.321 270.199 97.448 268.847 96.663 266.403 C 96.401 266.229 95.921 265.531 95.223 264.309 C 94.612 263.087 94.437 262.084 94.699 261.298 C 94.088 260.513 93.783 258.899 93.783 256.455 C 92.998 255.146 92.605 253.095 92.605 250.302 C 92.605 247.51 92.169 245.328 91.296 243.757 C 86.845 245.765 82.089 246.856 77.028 247.03 C 76.068 247.03 75.588 247.205 75.588 247.553 C 75.588 248.339 75.326 249.735 74.802 251.742 L 72.577 266.141 C 73.45 272.599 72.664 276.003 70.221 276.351 C 69.523 276.351 68.367 276.526 66.752 276.875 C 65.137 277.225 63.807 276.919 62.76 275.959 C 60.753 274.825 59.334 273.668 58.505 272.49 C 57.676 271.312 57.306 269.981 57.393 268.497 C 57.48 267.276 57.698 264.658 58.047 260.643 C 58.222 260.469 58.287 259.488 58.243 257.698 C 58.2 255.91 58.309 254.535 58.571 253.575 L 60.665 245.459 C 60.927 245.285 61.276 243.976 61.712 241.532 C 61.625 241.358 61.581 240.921 61.581 240.223 L 61.451 238.652 Z" style="fill: rgb(51, 51, 51); text-wrap-mode: nowrap; stroke-width: 1;" id="object-8"/><path d="M 146.252 227.023 C 146.252 231.125 145.685 236.579 144.55 243.385 C 145.074 242.949 145.86 242.208 146.907 241.16 C 148.128 239.938 150.572 238.149 154.237 235.793 L 156.2 234.353 L 160.127 232.39 L 164.447 229.51 C 164.272 229.336 164.491 228.899 165.102 228.201 C 166.76 225.321 167.72 222.791 167.981 220.609 C 167.981 219.475 167.807 218.624 167.458 218.056 C 167.109 217.489 166.018 217.118 164.185 216.943 C 164.011 216.769 163.182 216.551 161.698 216.289 C 158.12 216.289 155.742 216.507 154.564 216.943 C 153.386 217.38 152.492 217.598 151.881 217.598 L 149.917 218.121 L 147.692 218.252 L 147.168 221.787 C 147.168 221.875 146.994 222.747 146.645 224.405 C 146.645 225.016 146.514 225.889 146.252 227.023 Z M 168.505 284.88 C 167.196 284.444 165.364 283.179 163.007 281.084 C 162.571 280.474 161.437 279.427 159.604 277.943 C 157.859 276.896 155.677 274.845 153.059 271.79 C 153.059 271.704 152.754 271.006 152.143 269.696 C 151.096 268.736 150.092 266.816 149.132 263.936 C 149.045 263.85 148.914 263.675 148.739 263.413 C 148.564 263.151 148.281 262.737 147.888 262.169 C 147.495 261.602 147.081 260.62 146.645 259.224 C 146.208 257.828 145.336 256.301 144.027 254.643 L 143.503 254.643 C 143.503 255.167 143.372 255.908 143.11 256.868 L 143.11 259.486 L 142.325 267.078 L 140.362 279.775 C 140.711 280.474 140.711 281.652 140.362 283.31 C 140.362 284.008 140.144 285.143 139.707 286.713 C 139.271 288.284 138.617 289.331 137.744 289.855 C 136.871 290.379 135.169 290.466 132.638 290.116 C 131.765 289.768 130.544 288.546 128.973 286.451 C 128.362 286.19 127.49 284.794 126.355 282.262 C 126.53 280.692 126.573 279.71 126.486 279.317 C 126.399 278.925 126.355 278.423 126.355 277.812 C 126.355 277.202 126.399 276.809 126.486 276.634 C 126.311 276.809 126.311 275.936 126.486 274.016 L 126.486 273.099 C 126.486 272.751 126.748 271.355 127.272 268.911 C 127.272 267.079 127.294 265.791 127.337 265.049 C 127.38 264.307 127.664 263.413 128.188 262.366 L 128.188 258.831 L 128.319 255.297 C 128.842 253.727 129.104 251.894 129.104 249.799 C 129.279 248.752 129.388 247.727 129.431 246.723 C 129.475 245.72 129.628 244.607 129.89 243.385 C 129.89 241.465 130.021 240.004 130.282 239 C 130.544 237.997 130.697 237.299 130.74 236.906 C 130.784 236.514 130.85 235.881 130.937 235.008 L 131.853 229.379 L 132.246 221.132 L 130.675 220.085 C 127.882 218.951 125.919 217.816 124.784 216.682 C 124.348 216.42 124.195 215.744 124.326 214.653 C 124.457 213.562 125.046 212.667 126.093 211.969 C 127.315 211.969 129.104 211.228 131.46 209.744 C 131.722 209.744 132.508 209.308 133.817 208.435 L 136.173 207.649 C 136.434 207.388 137.525 206.908 139.445 206.21 C 139.882 206.21 140.58 205.97 141.54 205.49 C 142.5 205.01 143.503 204.727 144.55 204.639 C 145.423 204.552 147.19 204.312 149.852 203.919 C 152.513 203.527 154.76 203.592 156.593 204.115 C 157.728 204.115 158.949 204.334 160.258 204.77 C 162.353 204.77 164.709 205.468 167.327 206.864 C 167.938 206.864 168.81 207.257 169.945 208.042 L 172.432 209.22 L 175.705 211.838 C 177.537 213.322 179.195 215.199 180.679 217.467 C 181.726 218.515 182.119 219.867 181.857 221.525 C 180.635 229.117 175.355 236.666 166.018 244.171 L 162.222 245.872 L 155.808 249.93 C 157.989 252.985 160.825 256.563 164.316 260.664 C 164.578 261.275 165.582 262.497 167.327 264.329 L 171.778 269.827 L 173.348 272.183 L 176.883 276.11 C 177.144 276.721 177.886 277.463 179.108 278.335 L 181.333 280.43 C 183.34 282.001 184.169 283.79 183.82 285.797 C 183.471 287.804 182.25 288.851 180.155 288.938 L 177.014 288.677 L 170.73 286.975 L 168.505 284.88 Z" style="fill: rgb(51, 51, 51); text-wrap-mode: nowrap; stroke-width: 1;" id="object-9"/><path d="M 241.01 205.278 C 241.272 206.413 241.054 207.177 240.356 207.569 C 239.658 207.962 238.938 208.158 238.196 208.158 C 237.454 208.158 235.512 208.246 232.371 208.42 C 230.364 208.856 228.356 209.423 226.349 210.121 L 226.219 210.121 C 226.219 211.693 225.783 214.005 224.91 217.059 C 224.91 218.107 224.692 219.808 224.255 222.164 C 224.255 222.862 224.124 223.561 223.862 224.259 C 223.601 224.957 223.47 226.048 223.47 227.531 C 222.859 231.109 222.597 233.073 222.684 233.422 C 222.771 233.771 222.771 234.251 222.684 234.861 C 222.597 235.473 222.422 236.389 222.161 237.61 C 221.899 238.832 221.768 240.272 221.768 241.93 C 221.768 243.588 221.55 245.072 221.113 246.381 L 221.113 247.821 C 221.288 250.963 221.179 253.188 220.786 254.496 C 220.393 255.806 220.197 256.918 220.197 257.834 C 220.197 258.751 219.979 260.169 219.543 262.089 C 219.106 264.009 218.975 266.277 219.15 268.895 L 219.935 268.895 C 222.117 268.721 223.273 268.656 223.404 268.699 C 223.535 268.743 224.124 268.634 225.171 268.372 L 227.266 268.503 L 228.575 268.503 C 228.836 268.503 229.403 268.83 230.276 269.484 C 231.149 270.139 231.76 270.772 232.109 271.382 C 232.72 271.994 232.916 272.583 232.698 273.15 C 232.48 273.717 231.498 274.655 229.753 275.964 L 227.266 276.749 C 227.004 277.011 226.393 277.317 225.433 277.666 C 224.473 278.015 223.644 278.189 222.946 278.189 C 220.939 278.626 219.761 279.368 219.412 280.415 C 219.063 281.113 216.968 281.375 213.129 281.2 L 208.678 281.2 L 206.191 281.985 C 204.009 282.858 202.089 283.076 200.431 282.64 C 198.773 282.204 197.66 281.876 197.093 281.658 C 196.526 281.44 195.849 281.004 195.064 280.349 C 194.279 279.695 193.952 278.953 194.083 278.124 C 194.214 277.295 194.497 276.095 194.933 274.524 C 196.417 273.302 197.464 272.517 198.075 272.168 C 202.264 270.859 204.925 269.986 206.06 269.55 C 206.06 266.67 205.973 264.969 205.798 264.445 C 206.06 264.358 206.365 262.482 206.714 258.816 C 206.801 258.467 206.583 257.638 206.06 256.329 L 206.06 255.544 C 206.322 253.1 206.278 250.875 205.929 248.868 C 205.929 248.781 206.104 247.254 206.453 244.286 C 206.889 243.763 206.889 242.367 206.453 240.097 C 206.802 238.439 207.107 237.13 207.369 236.17 L 207.5 234.338 C 207.5 233.814 207.762 232.243 208.285 229.625 L 208.285 228.316 L 208.547 227.269 C 210.118 220.812 211.165 216.1 211.689 213.132 C 210.99 213.307 210.554 213.394 210.38 213.394 L 206.06 214.048 C 202.744 214.921 199.821 214.179 197.29 211.823 C 195.108 208.856 195.064 206.325 197.159 204.231 C 198.468 203.097 200.475 202.311 203.18 201.875 C 205.536 201.09 207.063 200.523 207.762 200.173 C 208.635 200.173 210.685 199.213 213.914 197.293 C 217.143 196.857 219.019 196.639 219.543 196.639 L 225.695 195.853 C 226.48 195.766 227.528 195.832 228.837 196.05 C 230.146 196.268 230.931 196.552 231.193 196.9 C 232.327 197.162 233.723 197.686 235.382 198.471 L 238.523 201.351 C 239.745 203.097 240.574 204.406 241.01 205.278 Z" style="fill: rgb(51, 51, 51); text-wrap-mode: nowrap; stroke-width: 1;" id="object-10"/><path d="M 274.072 219.837 C 274.159 219.837 275.119 218.354 276.952 215.386 C 277.213 215.386 277.693 214.819 278.391 213.685 C 279.177 212.9 279.57 212.114 279.57 211.328 L 281.664 208.449 C 281.664 208.1 282.188 207.314 283.235 206.092 C 284.369 203.911 285.896 201.511 287.816 198.893 C 288.863 197.323 289.583 196.254 289.976 195.686 C 290.369 195.119 290.674 194.661 290.892 194.311 C 291.111 193.963 291.351 193.657 291.612 193.395 L 290.565 193.395 L 287.947 193.657 C 287.598 193.657 287.075 193.745 286.376 193.919 C 279.569 195.752 275.424 196.625 273.941 196.537 C 272.458 196.45 271.236 196.668 270.276 197.191 C 268.792 197.191 266.959 197.41 264.778 197.846 C 261.113 197.846 258.582 197.017 257.186 195.359 L 255.877 193.657 L 254.044 190.123 C 253.782 189.163 253.826 187.636 254.175 185.541 C 254.524 184.669 255.288 183.949 256.466 183.381 C 257.644 182.814 259.062 182.53 260.72 182.53 C 263.425 182.53 266.741 182.4 270.668 182.138 C 274.595 181.876 278.915 181.658 283.627 181.483 C 288.776 181.483 296.238 180.698 306.011 179.127 C 306.884 179.04 307.975 179.389 309.284 180.174 C 310.593 180.96 311.596 181.832 312.295 182.792 C 312.818 184.102 313.429 185.236 314.127 186.196 C 315.174 188.727 314.389 191.519 311.771 194.573 L 308.629 197.322 C 308.542 197.322 307.975 198.195 306.928 199.94 C 299.859 209.802 296.019 215.038 295.408 215.648 C 295.234 215.998 294.776 216.761 294.034 217.939 C 293.292 219.117 292.747 220.012 292.398 220.622 L 287.947 225.989 C 287.947 226.426 287.554 227.342 286.769 228.738 L 285.984 229.262 L 282.057 234.629 L 278.391 239.996 L 276.035 243.006 L 274.464 245.624 C 274.464 246.148 273.962 247.152 272.959 248.635 C 271.956 250.119 271.127 251.449 270.472 252.627 C 269.817 253.806 269.185 254.875 268.574 255.834 L 271.846 255.311 L 277.868 253.74 C 279.089 253.74 280.66 253.348 282.58 252.562 C 283.453 252.562 284.195 252.519 284.806 252.431 C 284.98 252.257 285.809 252.126 287.293 252.038 C 287.554 251.864 288.732 251.603 290.827 251.253 C 292.922 250.904 294.231 250.729 294.754 250.729 C 295.889 250.729 297.896 250.511 300.775 250.075 C 303.219 249.901 304.79 250.162 305.488 250.86 C 307.495 252.868 307.844 255.486 306.535 258.714 C 306.535 258.889 306.186 259.151 305.488 259.5 C 300.427 261.158 297.416 262.118 296.456 262.379 C 294.187 262.816 292.31 263.383 290.827 264.081 C 290.478 264.081 289.954 264.256 289.256 264.605 C 287.773 265.303 285.809 265.958 283.366 266.568 C 278.217 268.052 275.185 268.947 274.268 269.252 C 273.352 269.558 271.563 270.081 268.901 270.822 C 266.24 271.564 264.036 272.023 262.291 272.197 C 260.546 272.372 258.364 271.543 255.746 269.71 C 255.048 269.274 254.612 268.881 254.437 268.532 L 252.866 266.176 C 250.684 263.122 250.553 260.111 252.473 257.143 C 252.473 256.969 252.691 256.533 253.128 255.834 L 256.4 248.111 L 256.924 245.624 C 256.924 245.276 257.404 244.534 258.364 243.399 C 258.713 242.614 259.149 241.829 259.673 241.043 C 260.196 240.258 260.458 239.822 260.458 239.734 C 261.593 237.989 262.684 236.68 263.731 235.807 L 265.432 233.189 L 267.134 231.094 C 267.134 230.396 268.312 228.782 270.668 226.251 C 270.843 225.815 271.585 224.725 272.894 222.979 L 274.072 219.837 Z" style="fill: rgb(51, 51, 51); text-wrap-mode: nowrap; stroke-width: 1;" id="object-11"/><path d="M 340.083 191.506 C 344.185 192.03 346.432 192.357 346.825 192.488 C 347.218 192.619 347.458 192.793 347.545 193.011 C 347.632 193.229 347.741 193.513 347.872 193.862 C 348.003 194.212 348.024 194.692 347.937 195.302 C 347.676 196.786 347.087 198.793 346.17 201.323 C 345.254 203.854 344.927 206.167 345.189 208.261 C 344.054 212.625 343.312 217.468 342.963 222.791 L 342.963 224.493 C 345.145 220.479 346.367 218.297 346.628 217.948 C 347.675 216.726 349.508 214.065 352.126 209.963 L 356.184 205.774 C 356.271 205.687 356.511 205.294 356.904 204.596 C 357.297 203.898 357.537 203.375 357.624 203.025 C 362.86 197.266 366.831 194.212 369.536 193.862 C 371.281 193.513 373.027 193.469 374.772 193.731 C 376.867 194.168 377.914 195.193 377.914 196.807 C 377.914 198.422 376.867 200.233 374.772 202.24 L 367.572 211.926 C 367.223 212.886 366.613 213.803 365.74 214.675 C 365.391 215.112 364.649 215.941 363.515 217.162 C 362.642 218.21 360.766 220.828 357.886 225.016 L 354.875 228.158 C 354.352 228.682 353.741 229.598 353.043 230.907 C 351.298 233.525 350.468 235.205 350.555 235.946 C 350.642 236.688 350.992 237.583 351.603 238.63 C 352.912 239.939 354.526 242.164 356.446 245.306 C 357.929 246.702 359.5 248.797 361.158 251.589 L 364.3 254.076 C 364.911 254.426 365.609 255.124 366.394 256.17 C 369.711 259.487 371.827 261.56 372.743 262.388 C 373.659 263.218 374.553 263.85 375.426 264.286 C 375.688 264.548 376.539 265.29 377.979 266.512 C 379.419 267.734 380.226 268.65 380.401 269.26 C 380.575 269.872 380.182 270.701 379.223 271.748 C 378.786 271.748 376.517 272.141 372.416 272.926 L 368.881 272.926 C 368.532 272.752 367.922 272.621 367.049 272.533 C 364.344 272.446 362.38 272.097 361.158 271.486 L 356.839 267.951 L 353.959 265.857 C 353.697 265.072 352.999 263.85 351.864 262.192 L 350.948 260.359 C 349.639 259.051 348.81 258.091 348.461 257.479 C 346.366 254.251 344.752 252.026 343.618 250.804 L 342.178 248.316 C 341.829 247.968 341.261 247.27 340.476 246.222 L 339.822 245.698 C 339.822 247.182 339.647 248.404 339.298 249.364 C 338.949 250.324 338.665 251.11 338.447 251.72 C 338.229 252.331 338.207 253.902 338.382 256.432 C 338.207 257.13 338.076 258.265 337.989 259.836 C 337.727 261.145 337.727 262.018 337.989 262.454 C 337.902 262.628 337.596 264.243 337.073 267.297 C 336.636 268.257 336.549 269.61 336.811 271.355 C 336.636 274.322 335.109 276.067 332.229 276.591 C 330.833 276.679 329.437 276.722 328.041 276.722 C 327.081 276.548 325.466 275.544 323.197 273.711 C 321.801 272.926 320.972 271.792 320.71 270.308 C 320.449 268.824 320.536 267.428 320.972 266.119 C 320.972 265.334 321.059 263.807 321.234 261.537 C 320.972 260.229 321.103 258.92 321.627 257.61 C 322.412 256.127 322.805 254.622 322.805 253.094 C 322.805 251.568 322.674 250.019 322.412 248.447 C 321.801 246.441 321.801 244.477 322.412 242.557 L 322.674 239.415 C 322.674 236.623 322.936 234.485 323.459 233.001 C 324.07 226.457 324.724 222.268 325.423 220.435 L 325.946 218.471 C 325.946 217.075 326.513 215.199 327.648 212.843 C 327.91 212.93 328.041 212.581 328.041 211.795 C 328.39 209.003 328.804 207.214 329.284 206.428 C 329.764 205.643 329.917 203.941 329.742 201.323 C 329.742 199.927 330.135 198.488 330.92 197.004 C 331.88 194.997 332.513 193.884 332.818 193.666 C 333.124 193.448 333.321 193.295 333.408 193.208 C 333.495 193.121 333.756 192.968 334.193 192.749 C 334.629 192.531 334.891 192.379 334.978 192.291 L 334.978 192.422 C 335.502 191.899 337.204 191.594 340.083 191.506 Z" style="fill: rgb(51, 51, 51); text-wrap-mode: nowrap; stroke-width: 1;" id="object-12"/><path d="M 415.955 242.559 C 415.955 241.338 415.998 240.335 416.085 239.549 C 416.522 235.273 416.849 232.567 417.067 231.433 C 417.285 230.299 417.394 229.6 417.394 229.338 L 417.394 223.71 C 417.656 223.361 417.918 221.223 418.18 217.296 C 418.18 213.107 418.354 210.009 418.703 208.002 C 418.703 206.693 419.139 205.471 420.012 204.336 C 421.147 202.417 422.499 201.065 424.07 200.279 L 424.201 200.279 C 425.51 199.93 426.841 199.973 428.194 200.409 C 429.547 200.846 430.31 201.086 430.484 201.129 C 430.659 201.173 430.899 201.261 431.204 201.391 C 431.51 201.523 431.728 201.61 431.859 201.653 C 431.99 201.697 432.164 201.784 432.382 201.915 C 432.601 202.046 432.775 202.177 432.906 202.307 C 433.037 202.439 433.189 202.57 433.364 202.7 C 433.539 202.832 433.67 202.984 433.757 203.158 C 434.63 204.904 435.241 210.663 435.59 220.437 C 435.851 222.008 435.982 224.517 435.982 227.964 C 435.982 231.411 435.938 233.745 435.851 234.967 L 435.851 236.276 C 435.677 237.847 435.59 239.025 435.59 239.81 L 435.59 240.727 C 435.59 242.385 435.459 243.651 435.197 244.523 C 435.197 246.53 434.979 248.406 434.542 250.151 C 434.542 250.85 434.346 251.963 433.953 253.489 C 433.56 255.017 433.364 256.26 433.364 257.22 C 433.451 257.657 433.059 259.49 432.186 262.718 C 432.361 263.067 432.055 264.42 431.27 266.776 C 431.27 267.736 430.965 268.849 430.354 270.114 C 429.743 271.38 429.219 272.601 428.783 273.779 C 428.346 274.957 428.084 275.634 427.997 275.808 C 427.474 278.514 426.078 281.437 423.809 284.578 L 421.714 286.673 C 421.889 286.847 421.671 287.24 421.06 287.851 C 420.536 288.462 417.918 290.033 413.206 292.563 C 413.119 292.651 412.224 292.912 410.522 293.348 C 408.821 293.785 406.879 294.003 404.697 294.003 C 402.516 294.003 400.421 293.654 398.414 292.956 C 397.192 292.694 396.101 292.258 395.141 291.647 C 394.705 291.211 394.094 290.774 393.309 290.338 C 392.872 290.338 391.607 289.553 389.513 287.982 C 389.164 287.72 388.029 286.106 386.109 283.138 C 385.498 281.742 385.171 280.979 385.128 280.847 C 385.084 280.717 384.953 280.433 384.735 279.997 C 384.517 279.561 384.364 278.557 384.277 276.986 C 384.102 273.496 385.28 271.75 387.811 271.75 C 390.429 271.75 392.872 273.059 395.141 275.677 C 395.84 276.375 396.276 276.833 396.45 277.051 C 396.625 277.27 397.039 277.685 397.694 278.295 C 398.349 278.906 398.872 279.299 399.265 279.473 C 399.658 279.648 400.181 279.866 400.836 280.128 C 401.49 280.39 402.123 280.52 402.734 280.52 C 403.345 280.52 404.152 280.324 405.155 279.931 C 406.159 279.539 406.835 279.037 407.184 278.426 C 407.184 277.554 407.686 276.419 408.69 275.022 C 409.693 273.626 410.239 272.841 410.326 272.666 C 410.588 271.445 410.85 270.572 411.111 270.048 C 411.635 268.565 412.071 266.602 412.42 264.158 C 412.595 263.984 412.42 262.893 411.897 260.885 C 411.897 260.537 411.177 260.122 409.737 259.642 C 408.297 259.162 407.053 258.879 406.006 258.791 C 404.261 259.14 402.035 258.267 399.33 256.173 C 398.196 255.301 397.498 254.624 397.236 254.144 C 396.974 253.664 396.734 253.337 396.516 253.162 C 396.298 252.988 396.102 252.682 395.927 252.246 C 394.094 249.192 393.178 247.228 393.178 246.355 L 392.654 245.046 C 392.654 244.174 392.305 243.388 391.607 242.69 C 391.607 242.516 391.476 240.945 391.214 237.978 C 390.603 235.709 390.298 233.658 390.298 231.825 L 390.298 229.731 L 390.429 226.982 C 390.254 226.284 390.298 224.888 390.56 222.793 L 390.56 217.819 L 390.691 215.856 L 390.691 213.107 C 390.778 213.02 390.822 212.584 390.822 211.798 L 390.953 210.489 C 390.953 209.617 390.997 208.918 391.084 208.394 C 391.084 204.73 393.004 202.592 396.843 201.98 C 399.81 201.719 401.818 202.025 402.865 202.897 C 404.872 204.643 405.744 208.264 405.483 213.761 C 405.483 215.332 405.396 216.641 405.221 217.688 C 405.744 219.346 405.875 220.786 405.613 222.008 C 405.788 222.619 405.875 223.23 405.875 223.841 L 405.875 225.804 C 405.875 226.154 406.028 227.768 406.333 230.647 C 406.639 233.527 406.966 235.491 407.315 236.538 C 407.315 237.673 407.49 238.764 407.839 239.81 C 407.839 240.509 408.319 241.818 409.279 243.737 C 410.064 247.665 411.548 249.497 413.729 249.235 C 414.602 249.061 415.3 247.577 415.824 244.785 C 416.085 244.523 416.129 243.781 415.955 242.559 Z" style="fill: rgb(51, 51, 51); text-wrap-mode: nowrap; stroke-width: 1;" id="object-13"/></g></svg>